<svg width="177" height="129" viewBox="0 0 177 129" fill="none" xmlns="http://www.w3.org/2000/svg">
<path d="M88 6.25C79.3471 6.25 70.8885 8.81589 63.6938 13.6232C56.4992 18.4305 50.8916 25.2633 47.5803 33.2576C44.269 41.2519 43.4026 50.0485 45.0907 58.5352C46.7788 67.0219 50.9455 74.8174 57.0641 80.9359C63.1826 87.0545 70.9782 91.2213 79.4648 92.9094C87.9515 94.5975 96.7482 93.7311 104.742 90.4197C112.737 87.1084 119.57 81.5008 124.377 74.3062C129.184 67.1115 131.75 58.6529 131.75 50C131.75 38.3968 127.141 27.2688 118.936 19.0641C110.731 10.8594 99.6032 6.25 88 6.25V6.25ZM88 87.5C80.5832 87.5 73.333 85.3007 67.1661 81.1801C60.9993 77.0596 56.1928 71.2029 53.3545 64.3506C50.5163 57.4984 49.7736 49.9584 51.2206 42.6841C52.6675 35.4098 56.239 28.728 61.4835 23.4835C66.728 18.239 73.4098 14.6675 80.6841 13.2206C87.9584 11.7736 95.4984 12.5162 102.351 15.3545C109.203 18.1928 115.06 22.9993 119.18 29.1661C123.301 35.333 125.5 42.5832 125.5 50C125.5 59.9456 121.549 69.4839 114.517 76.5165C107.484 83.5491 97.9456 87.5 88 87.5Z" fill="#B3B3B3"/>
<path d="M91.125 25H84.875V59.375H91.125V25Z" fill="#B3B3B3"/>
<path d="M88 68.75C87.0729 68.75 86.1666 69.0249 85.3958 69.54C84.6249 70.0551 84.0241 70.7871 83.6693 71.6437C83.3145 72.5002 83.2217 73.4427 83.4026 74.352C83.5834 75.2613 84.0299 76.0965 84.6854 76.7521C85.341 77.4076 86.1762 77.8541 87.0855 78.0349C87.9948 78.2158 88.9373 78.123 89.7938 77.7682C90.6504 77.4134 91.3824 76.8126 91.8975 76.0417C92.4126 75.2709 92.6875 74.3646 92.6875 73.4375C92.6875 72.1943 92.1936 71.002 91.3146 70.1229C90.4355 69.2439 89.2432 68.75 88 68.75Z" fill="#B3B3B3"/>
<path d="M4.56634 124.042C4.04367 124.042 3.57234 123.953 3.15234 123.776C2.74167 123.589 2.415 123.314 2.17234 122.95C1.939 122.577 1.82234 122.115 1.82234 121.564C1.82234 121.013 2.009 120.402 2.38234 119.73C2.75567 119.049 3.381 118.367 4.25834 117.686L4.11834 118.974L2.85834 117.994L4.17434 116.384C4.88367 116.925 5.49034 117.453 5.99434 117.966C6.50767 118.47 6.89967 118.988 7.17034 119.52C7.441 120.052 7.57634 120.617 7.57634 121.214C7.57634 121.503 7.52967 121.816 7.43634 122.152C7.343 122.479 7.18434 122.787 6.96034 123.076C6.73634 123.356 6.42834 123.589 6.03634 123.776C5.65367 123.953 5.16367 124.042 4.56634 124.042ZM4.72034 122.11C4.95367 122.11 5.14034 122.063 5.28034 121.97C5.42967 121.877 5.54167 121.755 5.61634 121.606C5.691 121.457 5.72834 121.298 5.72834 121.13C5.72834 120.962 5.691 120.78 5.61634 120.584C5.54167 120.388 5.397 120.169 5.18234 119.926C4.96767 119.683 4.65034 119.403 4.23034 119.086L5.29434 118.946C4.91167 119.207 4.60367 119.473 4.37034 119.744C4.137 120.015 3.969 120.276 3.86634 120.528C3.773 120.771 3.72634 120.995 3.72634 121.2C3.72634 121.499 3.82434 121.727 4.02034 121.886C4.21634 122.035 4.44967 122.11 4.72034 122.11ZM5.86834 115.334C5.59767 115.334 5.36434 115.241 5.16834 115.054C4.98167 114.858 4.88834 114.629 4.88834 114.368C4.88834 114.097 4.98167 113.864 5.16834 113.668C5.36434 113.472 5.59767 113.374 5.86834 113.374C6.12967 113.374 6.35367 113.472 6.54034 113.668C6.727 113.864 6.82034 114.097 6.82034 114.368C6.82034 114.629 6.727 114.858 6.54034 115.054C6.35367 115.241 6.12967 115.334 5.86834 115.334ZM3.44634 115.32C3.17567 115.32 2.94234 115.227 2.74634 115.04C2.55967 114.844 2.46634 114.615 2.46634 114.354C2.46634 114.083 2.55967 113.85 2.74634 113.654C2.94234 113.458 3.17567 113.36 3.44634 113.36C3.70767 113.36 3.93167 113.458 4.11834 113.654C4.305 113.85 4.39834 114.083 4.39834 114.354C4.39834 114.615 4.305 114.844 4.11834 115.04C3.93167 115.227 3.70767 115.32 3.44634 115.32ZM7.69763 127.22L6.98363 125.428C7.7863 125.148 8.43497 124.84 8.92963 124.504C9.43363 124.168 9.8023 123.809 10.0356 123.426C10.2783 123.043 10.3996 122.647 10.3996 122.236C10.3996 121.975 10.3623 121.704 10.2876 121.424C10.213 121.135 10.1056 120.831 9.96563 120.514C9.83497 120.197 9.6763 119.865 9.48963 119.52L11.3236 118.638C11.6503 119.263 11.9023 119.861 12.0796 120.43C12.2663 120.999 12.3596 121.531 12.3596 122.026C12.3596 122.483 12.299 122.922 12.1776 123.342C12.0656 123.762 11.8883 124.154 11.6456 124.518C11.4123 124.891 11.109 125.241 10.7356 125.568C10.3623 125.895 9.92363 126.193 9.41963 126.464C8.91563 126.744 8.34163 126.996 7.69763 127.22ZM14.0001 127.22L13.5941 125.26C14.2568 125.176 14.8355 125.073 15.3301 124.952C15.8248 124.84 16.2401 124.681 16.5761 124.476C16.9121 124.271 17.1641 123.991 17.3321 123.636C17.5001 123.272 17.5841 122.805 17.5841 122.236C17.5841 121.685 17.5001 121.247 17.3321 120.92C17.1641 120.593 16.9401 120.43 16.6601 120.43C16.4641 120.43 16.3008 120.5 16.1701 120.64C16.0395 120.771 15.9415 120.929 15.8761 121.116C15.8201 121.293 15.7921 121.452 15.7921 121.592C15.7921 121.676 15.8155 121.765 15.8621 121.858C15.9088 121.951 16.0115 122.031 16.1701 122.096C16.3288 122.161 16.5761 122.199 16.9121 122.208C17.2575 122.217 17.7241 122.185 18.3121 122.11H20.6641C21.0188 122.11 21.2708 122.203 21.4201 122.39C21.5788 122.567 21.6581 122.791 21.6581 123.062C21.6581 123.351 21.5601 123.594 21.3641 123.79C21.1681 123.977 20.8881 124.07 20.5241 124.07H16.6741C16.0861 124.07 15.5821 124 15.1621 123.86C14.7421 123.72 14.4201 123.496 14.1961 123.188C13.9721 122.871 13.8601 122.451 13.8601 121.928C13.8601 121.508 13.9301 121.088 14.0701 120.668C14.2195 120.248 14.4248 119.865 14.6861 119.52C14.9475 119.165 15.2508 118.885 15.5961 118.68C15.9508 118.465 16.3335 118.358 16.7441 118.358C17.3041 118.358 17.7941 118.531 18.2141 118.876C18.6341 119.221 18.9608 119.679 19.1941 120.248C19.4368 120.817 19.5581 121.438 19.5581 122.11C19.5581 123.165 19.3341 124.061 18.8861 124.798C18.4381 125.535 17.7988 126.105 16.9681 126.506C16.1375 126.917 15.1481 127.155 14.0001 127.22ZM34.5859 124.07C34.1099 124.07 33.6526 124.028 33.2139 123.944C32.7753 123.851 32.3786 123.729 32.0239 123.58C31.6786 123.431 31.3939 123.263 31.1699 123.076L32.4299 121.718C32.7659 121.858 33.1113 121.961 33.4659 122.026C33.8206 122.082 34.2406 122.11 34.7259 122.11C35.0806 122.11 35.3326 122.203 35.4819 122.39C35.6406 122.567 35.7199 122.791 35.7199 123.062C35.7199 123.351 35.6219 123.594 35.4259 123.79C35.2299 123.977 34.9499 124.07 34.5859 124.07ZM27.7959 124.252C26.9279 124.252 26.2046 124.215 25.6259 124.14C25.0566 124.065 24.5946 123.958 24.2399 123.818C23.8853 123.678 23.6053 123.51 23.3999 123.314C23.1946 123.118 23.0266 122.903 22.8959 122.67L23.2879 122.558C23.0546 123.006 22.7886 123.337 22.4899 123.552C22.1913 123.767 21.8786 123.907 21.5519 123.972C21.2253 124.037 20.8893 124.07 20.5439 124.07L20.6839 122.11C20.9733 122.11 21.2019 122.063 21.3699 121.97C21.5379 121.877 21.6733 121.723 21.7759 121.508C21.8879 121.293 21.9906 121.009 22.0839 120.654C22.1773 120.299 22.2893 119.865 22.4199 119.352L24.1979 119.786C24.1326 120.038 24.0766 120.257 24.0299 120.444C23.9926 120.631 23.9599 120.794 23.9319 120.934C23.9133 121.065 23.9039 121.172 23.9039 121.256C23.9039 121.433 23.9459 121.592 24.0299 121.732C24.1139 121.863 24.2773 121.97 24.5199 122.054C24.7626 122.129 25.1173 122.189 25.5839 122.236C26.0599 122.273 26.6806 122.292 27.4459 122.292C28.2579 122.292 28.9346 122.264 29.4759 122.208C30.0173 122.143 30.4466 122.054 30.7639 121.942C31.0906 121.821 31.3239 121.676 31.4639 121.508C31.6039 121.331 31.6739 121.13 31.6739 120.906C31.6739 120.729 31.6319 120.565 31.5479 120.416C31.4733 120.257 31.3473 120.127 31.1699 120.024C30.9926 119.921 30.7639 119.87 30.4839 119.87C30.1479 119.87 29.8073 119.954 29.4619 120.122C29.1259 120.281 28.7946 120.495 28.4679 120.766C28.1413 121.027 27.8286 121.321 27.5299 121.648C27.2406 121.975 26.9793 122.301 26.7459 122.628L24.6459 122.39C25.0099 121.802 25.4206 121.237 25.8779 120.696C26.3353 120.155 26.8253 119.679 27.3479 119.268C27.8706 118.848 28.4119 118.517 28.9719 118.274C29.5319 118.031 30.1013 117.91 30.6799 117.91C31.3053 117.91 31.8373 118.031 32.2759 118.274C32.7146 118.517 33.0506 118.853 33.2839 119.282C33.5173 119.711 33.6339 120.206 33.6339 120.766C33.6339 121.447 33.4379 122.049 33.0459 122.572C32.6633 123.095 32.0426 123.505 31.1839 123.804C30.3346 124.103 29.2053 124.252 27.7959 124.252ZM34.5986 124.07L34.7386 122.11C35.168 122.11 35.476 122.068 35.6626 121.984C35.8493 121.891 35.9613 121.723 35.9986 121.48C36.036 121.228 36.0453 120.864 36.0266 120.388L35.7746 113.752H37.7486L38.0286 120.528C38.0473 121.069 38.024 121.559 37.9586 121.998C37.9026 122.427 37.758 122.796 37.5246 123.104C37.3006 123.412 36.9506 123.65 36.4746 123.818C36.008 123.986 35.3826 124.07 34.5986 124.07ZM39.8749 124L39.5809 113.752H41.5409L41.8349 124H39.8749ZM46.1872 123.608C46.1872 123.393 46.2059 123.141 46.2432 122.852C46.2806 122.563 46.3506 122.236 46.4532 121.872C46.5559 121.499 46.7099 121.083 46.9152 120.626L48.6372 121.228C48.5346 121.517 48.4459 121.783 48.3712 122.026C48.2966 122.259 48.2406 122.479 48.2032 122.684C48.1659 122.88 48.1472 123.076 48.1472 123.272C48.1472 123.692 48.2499 124.056 48.4552 124.364C48.6699 124.681 48.9592 124.924 49.3232 125.092C49.6966 125.269 50.1259 125.358 50.6112 125.358C51.4046 125.358 52.0112 125.227 52.4312 124.966C52.8606 124.714 53.1499 124.313 53.2992 123.762C53.4579 123.202 53.5186 122.479 53.4812 121.592L53.2012 113.752H55.1752L55.3852 120.374C55.4039 120.841 55.4692 121.2 55.5812 121.452C55.6932 121.704 55.8659 121.877 56.0992 121.97C56.3419 122.063 56.6546 122.11 57.0372 122.11C57.3919 122.11 57.6439 122.203 57.7932 122.39C57.9426 122.567 58.0172 122.791 58.0172 123.062C58.0172 123.351 57.9192 123.594 57.7232 123.79C57.5272 123.977 57.2519 124.07 56.8972 124.07C56.6919 124.07 56.4726 124.042 56.2392 123.986C56.0059 123.93 55.7819 123.841 55.5672 123.72C55.3526 123.599 55.1659 123.44 55.0072 123.244C54.8486 123.039 54.7412 122.787 54.6852 122.488L55.4412 122.11C55.4412 123.053 55.3292 123.851 55.1052 124.504C54.8906 125.157 54.5732 125.685 54.1532 126.086C53.7426 126.487 53.2339 126.777 52.6272 126.954C52.0299 127.141 51.3392 127.234 50.5552 127.234C49.9579 127.234 49.3932 127.159 48.8612 127.01C48.3386 126.861 47.8766 126.637 47.4752 126.338C47.0739 126.039 46.7566 125.661 46.5232 125.204C46.2992 124.756 46.1872 124.224 46.1872 123.608ZM56.8975 124.07L57.0375 122.11C57.3735 122.11 57.6628 122.077 57.9055 122.012C58.1481 121.947 58.3535 121.816 58.5215 121.62C58.6895 121.415 58.8295 121.116 58.9415 120.724C59.0628 120.332 59.1701 119.809 59.2635 119.156L61.0975 119.464C61.0788 119.604 61.0508 119.767 61.0135 119.954C60.9855 120.141 60.9575 120.332 60.9295 120.528C60.9108 120.715 60.9015 120.892 60.9015 121.06C60.9015 121.228 60.9341 121.377 60.9995 121.508C61.0648 121.639 61.1675 121.751 61.3075 121.844C61.4568 121.928 61.6481 121.993 61.8815 122.04C62.1241 122.087 62.4181 122.11 62.7635 122.11C63.1181 122.11 63.3701 122.203 63.5195 122.39C63.6688 122.567 63.7435 122.791 63.7435 123.062C63.7435 123.351 63.6455 123.594 63.4495 123.79C63.2628 123.977 62.9875 124.07 62.6235 124.07C62.2035 124.07 61.8208 124.037 61.4755 123.972C61.1395 123.907 60.8455 123.799 60.5935 123.65C60.3508 123.491 60.1501 123.286 59.9915 123.034C59.8421 122.773 59.7488 122.455 59.7115 122.082H60.3835C60.2155 122.53 60.0008 122.889 59.7395 123.16C59.4875 123.421 59.2028 123.617 58.8855 123.748C58.5681 123.879 58.2368 123.963 57.8915 124C57.5555 124.047 57.2241 124.07 56.8975 124.07ZM60.8035 127.318C60.5328 127.318 60.2995 127.22 60.1035 127.024C59.9168 126.837 59.8235 126.613 59.8235 126.352C59.8235 126.081 59.9168 125.848 60.1035 125.652C60.2995 125.456 60.5328 125.358 60.8035 125.358C61.0648 125.358 61.2888 125.456 61.4755 125.652C61.6621 125.848 61.7555 126.081 61.7555 126.352C61.7555 126.613 61.6621 126.837 61.4755 127.024C61.2888 127.22 61.0648 127.318 60.8035 127.318ZM58.3815 127.318C58.1108 127.318 57.8775 127.22 57.6815 127.024C57.4948 126.837 57.4015 126.613 57.4015 126.352C57.4015 126.081 57.4948 125.848 57.6815 125.652C57.8775 125.456 58.1108 125.358 58.3815 125.358C58.6428 125.358 58.8668 125.456 59.0535 125.652C59.2401 125.848 59.3335 126.081 59.3335 126.352C59.3335 126.613 59.2401 126.837 59.0535 127.024C58.8668 127.22 58.6428 127.318 58.3815 127.318ZM62.626 124.07L62.766 122.11C62.9993 122.11 63.1766 122.063 63.298 121.97C63.4193 121.877 63.5406 121.713 63.662 121.48C63.7833 121.247 63.9513 120.929 64.166 120.528C64.3993 120.08 64.642 119.707 64.894 119.408C65.146 119.1 65.398 118.857 65.65 118.68C65.9113 118.493 66.168 118.363 66.42 118.288C66.6813 118.204 66.938 118.162 67.19 118.162C67.5353 118.162 67.8573 118.237 68.156 118.386C68.464 118.526 68.758 118.773 69.038 119.128C69.318 119.473 69.584 119.949 69.836 120.556C70.0133 120.976 70.1906 121.298 70.368 121.522C70.5453 121.746 70.7273 121.9 70.914 121.984C71.11 122.068 71.306 122.11 71.502 122.11C71.8566 122.11 72.1086 122.203 72.258 122.39C72.4073 122.567 72.482 122.791 72.482 123.062C72.482 123.351 72.384 123.594 72.188 123.79C71.992 123.977 71.7166 124.07 71.362 124.07C70.9046 124.07 70.4893 123.995 70.116 123.846C69.7426 123.697 69.4486 123.473 69.234 123.174L69.64 122.866C69.556 123.062 69.43 123.267 69.262 123.482C69.1033 123.697 68.8933 123.879 68.632 124.028C68.38 124.177 68.0766 124.252 67.722 124.252C67.4886 124.252 67.2133 124.205 66.896 124.112C66.588 124.028 66.266 123.883 65.93 123.678C65.6033 123.463 65.3 123.174 65.02 122.81C64.8426 123.137 64.6466 123.393 64.432 123.58C64.2173 123.757 63.9653 123.883 63.676 123.958C63.3866 124.033 63.0366 124.07 62.626 124.07ZM65.832 121.158C65.9253 121.298 66.0373 121.438 66.168 121.578C66.2986 121.718 66.4433 121.844 66.602 121.956C66.7606 122.059 66.9286 122.143 67.106 122.208C67.2926 122.273 67.4746 122.306 67.652 122.306C67.8386 122.306 67.9926 122.236 68.114 122.096C68.2353 121.947 68.24 121.727 68.128 121.438C68.0813 121.317 68.016 121.181 67.932 121.032C67.8573 120.873 67.7686 120.724 67.666 120.584C67.5726 120.444 67.4653 120.327 67.344 120.234C67.232 120.141 67.1153 120.094 66.994 120.094C66.8726 120.094 66.7466 120.131 66.616 120.206C66.4853 120.281 66.3546 120.397 66.224 120.556C66.0933 120.705 65.9626 120.906 65.832 121.158ZM80.5183 124.07C80.089 124.07 79.6876 124.037 79.3143 123.972C78.9503 123.907 78.6143 123.795 78.3063 123.636C77.9983 123.468 77.723 123.239 77.4803 122.95C77.247 122.661 77.051 122.297 76.8923 121.858L77.9983 120.976C78.1663 121.275 78.3716 121.508 78.6143 121.676C78.857 121.835 79.1463 121.947 79.4823 122.012C79.8183 122.077 80.2103 122.11 80.6583 122.11C81.013 122.11 81.265 122.203 81.4143 122.39C81.5636 122.567 81.6383 122.791 81.6383 123.062C81.6383 123.351 81.5403 123.594 81.3443 123.79C81.1576 123.977 80.8823 124.07 80.5183 124.07ZM71.3623 124.07L71.5023 122.11C72.0063 122.11 72.5056 122.082 73.0003 122.026C73.495 121.97 73.9756 121.886 74.4423 121.774C74.909 121.662 75.3523 121.517 75.7723 121.34C76.2016 121.163 76.603 120.948 76.9763 120.696C76.6963 120.528 76.393 120.383 76.0663 120.262C75.7396 120.141 75.3896 120.052 75.0163 119.996C74.6523 119.931 74.265 119.898 73.8543 119.898C73.705 119.898 73.5463 119.903 73.3783 119.912C73.2196 119.921 73.0563 119.94 72.8883 119.968C72.7203 119.987 72.5523 120.015 72.3843 120.052L72.1043 118.134C72.375 118.059 72.6596 118.008 72.9583 117.98C73.2663 117.943 73.537 117.924 73.7703 117.924C74.2743 117.924 74.7363 117.98 75.1563 118.092C75.5856 118.204 75.9776 118.344 76.3323 118.512C76.6963 118.68 77.0323 118.848 77.3403 119.016C77.6576 119.184 77.9563 119.324 78.2363 119.436C78.5256 119.548 78.8056 119.604 79.0763 119.604H79.5943L79.8183 121.466C79.417 121.485 79.039 121.564 78.6843 121.704C78.339 121.835 77.9936 122.003 77.6483 122.208C77.3123 122.404 76.9483 122.609 76.5563 122.824C76.1736 123.039 75.7396 123.239 75.2543 123.426C74.769 123.613 74.209 123.767 73.5743 123.888C72.9396 124.009 72.2023 124.07 71.3623 124.07ZM80.5225 124.07L80.6625 122.11C81.2225 122.11 81.6518 122.082 81.9505 122.026C82.2491 121.97 82.4545 121.867 82.5665 121.718C82.6878 121.559 82.7485 121.335 82.7485 121.046C82.7485 120.785 82.7111 120.472 82.6365 120.108C82.5711 119.744 82.4825 119.366 82.3705 118.974C82.2678 118.582 82.1558 118.223 82.0345 117.896L83.9665 117.364C84.0878 117.681 84.2045 118.05 84.3165 118.47C84.4285 118.89 84.5218 119.324 84.5965 119.772C84.6711 120.211 84.7085 120.635 84.7085 121.046C84.7085 121.681 84.6058 122.199 84.4005 122.6C84.1951 122.992 83.9058 123.295 83.5325 123.51C83.1685 123.725 82.7298 123.874 82.2165 123.958C81.7031 124.033 81.1385 124.07 80.5225 124.07ZM84.3165 116.23C84.0458 116.23 83.8125 116.137 83.6165 115.95C83.4298 115.754 83.3365 115.525 83.3365 115.264C83.3365 114.993 83.4298 114.76 83.6165 114.564C83.8125 114.368 84.0458 114.27 84.3165 114.27C84.5778 114.27 84.8018 114.368 84.9885 114.564C85.1751 114.76 85.2685 114.993 85.2685 115.264C85.2685 115.525 85.1751 115.754 84.9885 115.95C84.8018 116.137 84.5778 116.23 84.3165 116.23ZM81.8945 116.216C81.6238 116.216 81.3905 116.123 81.1945 115.936C81.0078 115.74 80.9145 115.511 80.9145 115.25C80.9145 114.979 81.0078 114.746 81.1945 114.55C81.3905 114.354 81.6238 114.256 81.8945 114.256C82.1558 114.256 82.3798 114.354 82.5665 114.55C82.7531 114.746 82.8465 114.979 82.8465 115.25C82.8465 115.511 82.7531 115.74 82.5665 115.936C82.3798 116.123 82.1558 116.216 81.8945 116.216ZM90.8099 122.628C90.6606 122.553 90.5113 122.451 90.3619 122.32C90.2126 122.18 90.0773 122.017 89.9559 121.83C89.8346 121.643 89.7366 121.443 89.6619 121.228C89.5966 121.004 89.5639 120.775 89.5639 120.542C89.5639 120.029 89.6853 119.576 89.9279 119.184C90.1706 118.783 90.4973 118.47 90.9079 118.246C91.3186 118.013 91.7713 117.896 92.2659 117.896C92.5366 117.896 92.7839 117.915 93.0079 117.952C93.2413 117.98 93.4746 118.027 93.7079 118.092L93.3999 119.912C93.2319 119.865 93.0686 119.833 92.9099 119.814C92.7606 119.786 92.6253 119.772 92.5039 119.772C92.3079 119.772 92.1353 119.814 91.9859 119.898C91.8366 119.973 91.7199 120.085 91.6359 120.234C91.5613 120.374 91.5239 120.537 91.5239 120.724C91.5239 120.939 91.5706 121.13 91.6639 121.298C91.7666 121.466 91.9159 121.611 92.1119 121.732C92.3173 121.844 92.5693 121.933 92.8679 121.998L90.8099 122.628ZM89.5499 124.798L88.9199 122.964C89.4053 122.833 89.9326 122.684 90.5019 122.516C91.0713 122.339 91.6686 122.138 92.2939 121.914C92.9286 121.69 93.5726 121.447 94.2259 121.186L94.9539 122.978C94.5806 123.127 94.1653 123.291 93.7079 123.468C93.2506 123.636 92.7746 123.804 92.2799 123.972C91.7853 124.14 91.3046 124.294 90.8379 124.434C90.3713 124.574 89.9419 124.695 89.5499 124.798ZM99.8081 124.07C98.9401 124.07 98.2681 123.981 97.7921 123.804C97.3255 123.627 96.9988 123.351 96.8121 122.978C96.6255 122.595 96.5181 122.115 96.4901 121.536L96.1961 113.752H98.1561L98.4501 120.598C98.4688 121.027 98.5155 121.349 98.5901 121.564C98.6648 121.779 98.8048 121.923 99.0101 121.998C99.2248 122.073 99.5375 122.11 99.9481 122.11C100.303 122.11 100.555 122.203 100.704 122.39C100.863 122.567 100.942 122.791 100.942 123.062C100.942 123.351 100.844 123.594 100.648 123.79C100.452 123.977 100.172 124.07 99.8081 124.07ZM99.8271 124.07L99.9671 122.11C100.322 122.11 100.602 122.077 100.807 122.012C101.022 121.947 101.19 121.816 101.311 121.62C101.442 121.415 101.549 121.116 101.633 120.724C101.726 120.332 101.82 119.809 101.913 119.156L103.747 119.464C103.728 119.604 103.7 119.767 103.663 119.954C103.635 120.141 103.607 120.332 103.579 120.528C103.56 120.715 103.551 120.892 103.551 121.06C103.551 121.284 103.598 121.475 103.691 121.634C103.794 121.783 103.971 121.9 104.223 121.984C104.484 122.068 104.858 122.11 105.343 122.11C105.698 122.11 105.95 122.203 106.099 122.39C106.248 122.567 106.323 122.791 106.323 123.062C106.323 123.351 106.225 123.594 106.029 123.79C105.842 123.977 105.567 124.07 105.203 124.07C104.559 124.07 104.036 124.009 103.635 123.888C103.234 123.767 102.935 123.561 102.739 123.272C102.543 122.983 102.417 122.586 102.361 122.082H103.033C102.865 122.53 102.669 122.889 102.445 123.16C102.221 123.421 101.969 123.617 101.689 123.748C101.409 123.879 101.11 123.963 100.793 124C100.485 124.047 100.163 124.07 99.8271 124.07ZM102.683 117.728C102.394 117.728 102.146 117.63 101.941 117.434C101.745 117.238 101.647 116.995 101.647 116.706C101.647 116.417 101.745 116.169 101.941 115.964C102.146 115.759 102.394 115.656 102.683 115.656C102.963 115.656 103.201 115.759 103.397 115.964C103.602 116.169 103.705 116.417 103.705 116.706C103.705 116.995 103.602 117.238 103.397 117.434C103.201 117.63 102.963 117.728 102.683 117.728ZM105.2 124.07L105.34 122.11C105.9 122.11 106.33 122.082 106.628 122.026C106.927 121.97 107.132 121.867 107.244 121.718C107.366 121.559 107.426 121.335 107.426 121.046C107.426 120.785 107.389 120.472 107.314 120.108C107.249 119.744 107.16 119.366 107.048 118.974C106.946 118.582 106.834 118.223 106.712 117.896L108.644 117.364C108.766 117.681 108.882 118.05 108.994 118.47C109.106 118.89 109.2 119.324 109.274 119.772C109.349 120.211 109.386 120.635 109.386 121.046C109.386 121.681 109.284 122.199 109.078 122.6C108.873 122.992 108.584 123.295 108.21 123.51C107.846 123.725 107.408 123.874 106.894 123.958C106.381 124.033 105.816 124.07 105.2 124.07ZM107.874 114.354C107.641 114.354 107.436 114.265 107.258 114.088C107.09 113.911 107.006 113.701 107.006 113.458C107.006 113.215 107.09 113.01 107.258 112.842C107.436 112.674 107.641 112.59 107.874 112.59C108.117 112.59 108.322 112.674 108.49 112.842C108.658 113.01 108.742 113.215 108.742 113.458C108.742 113.701 108.658 113.911 108.49 114.088C108.322 114.265 108.117 114.354 107.874 114.354ZM106.754 116.202C106.521 116.202 106.316 116.113 106.138 115.936C105.97 115.759 105.886 115.549 105.886 115.306C105.886 115.063 105.97 114.858 106.138 114.69C106.316 114.522 106.521 114.438 106.754 114.438C106.997 114.438 107.202 114.522 107.37 114.69C107.538 114.858 107.622 115.063 107.622 115.306C107.622 115.549 107.538 115.759 107.37 115.936C107.202 116.113 106.997 116.202 106.754 116.202ZM108.924 116.202C108.691 116.202 108.486 116.113 108.308 115.936C108.14 115.759 108.056 115.549 108.056 115.306C108.056 115.063 108.14 114.858 108.308 114.69C108.486 114.522 108.691 114.438 108.924 114.438C109.167 114.438 109.372 114.522 109.54 114.69C109.708 114.858 109.792 115.063 109.792 115.306C109.792 115.549 109.708 115.759 109.54 115.936C109.372 116.113 109.167 116.202 108.924 116.202ZM111.323 124L111.057 114.732H113.017L113.283 124H111.323ZM110.553 113.836L110.315 112.856C110.642 112.8 110.885 112.753 111.043 112.716C111.211 112.679 111.389 112.637 111.575 112.59L111.435 112.94C111.193 112.856 110.959 112.693 110.735 112.45C110.521 112.198 110.413 111.913 110.413 111.596C110.413 111.26 110.488 110.989 110.637 110.784C110.787 110.579 110.978 110.429 111.211 110.336C111.445 110.243 111.687 110.196 111.939 110.196C112.079 110.196 112.21 110.205 112.331 110.224C112.462 110.243 112.579 110.271 112.681 110.308L112.569 111.316C112.476 111.297 112.383 111.279 112.289 111.26C112.196 111.241 112.093 111.232 111.981 111.232C111.86 111.232 111.748 111.274 111.645 111.358C111.552 111.433 111.505 111.526 111.505 111.638C111.505 111.797 111.561 111.937 111.673 112.058C111.785 112.179 111.916 112.277 112.065 112.352C112.224 112.417 112.355 112.455 112.457 112.464L111.687 112.548C111.939 112.483 112.177 112.417 112.401 112.352C112.625 112.277 112.835 112.203 113.031 112.128L113.311 113.066C113.078 113.15 112.803 113.243 112.485 113.346C112.177 113.439 111.855 113.528 111.519 113.612C111.193 113.696 110.871 113.771 110.553 113.836ZM121.682 124.07C120.814 124.07 120.142 123.981 119.666 123.804C119.2 123.627 118.873 123.351 118.686 122.978C118.5 122.595 118.392 122.115 118.364 121.536L118.098 114.732H120.058L120.324 120.598C120.343 121.027 120.39 121.349 120.464 121.564C120.539 121.779 120.679 121.923 120.884 121.998C121.099 122.073 121.412 122.11 121.822 122.11C122.177 122.11 122.429 122.203 122.578 122.39C122.737 122.567 122.816 122.791 122.816 123.062C122.816 123.351 122.718 123.594 122.522 123.79C122.326 123.977 122.046 124.07 121.682 124.07ZM117.692 113.836L117.454 112.856C117.781 112.8 118.024 112.753 118.182 112.716C118.35 112.679 118.528 112.637 118.714 112.59L118.574 112.94C118.332 112.856 118.098 112.693 117.874 112.45C117.66 112.198 117.552 111.913 117.552 111.596C117.552 111.26 117.627 110.989 117.776 110.784C117.926 110.579 118.117 110.429 118.35 110.336C118.584 110.243 118.826 110.196 119.078 110.196C119.218 110.196 119.349 110.205 119.47 110.224C119.601 110.243 119.718 110.271 119.82 110.308L119.708 111.316C119.615 111.297 119.522 111.279 119.428 111.26C119.335 111.241 119.232 111.232 119.12 111.232C118.999 111.232 118.887 111.274 118.784 111.358C118.691 111.433 118.644 111.526 118.644 111.638C118.644 111.797 118.7 111.937 118.812 112.058C118.924 112.179 119.055 112.277 119.204 112.352C119.363 112.417 119.494 112.455 119.596 112.464L118.826 112.548C119.078 112.483 119.316 112.417 119.54 112.352C119.764 112.277 119.974 112.203 120.17 112.128L120.45 113.066C120.217 113.15 119.942 113.243 119.624 113.346C119.316 113.439 118.994 113.528 118.658 113.612C118.332 113.696 118.01 113.771 117.692 113.836ZM132.356 124.07C131.88 124.07 131.423 124.028 130.984 123.944C130.545 123.851 130.149 123.729 129.794 123.58C129.449 123.431 129.164 123.263 128.94 123.076L130.2 121.718C130.536 121.858 130.881 121.961 131.236 122.026C131.591 122.082 132.011 122.11 132.496 122.11C132.851 122.11 133.103 122.203 133.252 122.39C133.411 122.567 133.49 122.791 133.49 123.062C133.49 123.351 133.392 123.594 133.196 123.79C133 123.977 132.72 124.07 132.356 124.07ZM121.702 124.07L121.842 122.11H124.978C125.855 122.11 126.583 122.077 127.162 122.012C127.75 121.947 128.217 121.853 128.562 121.732C128.907 121.601 129.15 121.452 129.29 121.284C129.439 121.116 129.514 120.934 129.514 120.738C129.514 120.561 129.472 120.393 129.388 120.234C129.304 120.066 129.178 119.931 129.01 119.828C128.842 119.725 128.623 119.674 128.352 119.674C128.007 119.674 127.661 119.758 127.316 119.926C126.971 120.085 126.635 120.304 126.308 120.584C125.981 120.855 125.669 121.158 125.37 121.494C125.081 121.83 124.815 122.171 124.572 122.516L122.458 122.222C122.85 121.615 123.275 121.041 123.732 120.5C124.199 119.949 124.689 119.469 125.202 119.058C125.725 118.638 126.261 118.311 126.812 118.078C127.372 117.835 127.941 117.714 128.52 117.714C129.136 117.714 129.663 117.84 130.102 118.092C130.541 118.344 130.877 118.689 131.11 119.128C131.353 119.567 131.474 120.075 131.474 120.654C131.474 121.261 131.301 121.807 130.956 122.292C130.62 122.777 130.046 123.179 129.234 123.496C128.889 123.627 128.515 123.734 128.114 123.818C127.713 123.902 127.241 123.963 126.7 124C126.159 124.047 125.51 124.07 124.754 124.07H121.702ZM123.158 122.642L122.864 113.752H124.824L125.076 120.472L123.158 122.642ZM132.366 124.07L132.506 122.11C133.01 122.11 133.51 122.082 134.004 122.026C134.499 121.97 134.98 121.886 135.446 121.774C135.913 121.662 136.356 121.517 136.776 121.34C137.206 121.163 137.607 120.948 137.98 120.696C137.7 120.528 137.397 120.383 137.07 120.262C136.744 120.141 136.394 120.052 136.02 119.996C135.656 119.931 135.269 119.898 134.858 119.898C134.709 119.898 134.55 119.903 134.382 119.912C134.224 119.921 134.06 119.94 133.892 119.968C133.724 119.987 133.556 120.015 133.388 120.052L133.108 118.134C133.379 118.059 133.664 118.008 133.962 117.98C134.27 117.943 134.541 117.924 134.774 117.924C135.278 117.924 135.74 117.98 136.16 118.092C136.59 118.204 136.982 118.344 137.336 118.512C137.7 118.68 138.036 118.848 138.344 119.016C138.662 119.184 138.96 119.324 139.24 119.436C139.53 119.548 139.81 119.604 140.08 119.604H140.598L140.822 121.466C140.421 121.485 140.043 121.564 139.688 121.704C139.343 121.835 138.998 122.003 138.652 122.208C138.316 122.404 137.952 122.609 137.56 122.824C137.178 123.039 136.744 123.239 136.258 123.426C135.773 123.613 135.213 123.767 134.578 123.888C133.944 124.009 133.206 124.07 132.366 124.07ZM134.788 116.622C134.499 116.622 134.252 116.524 134.046 116.328C133.85 116.132 133.752 115.889 133.752 115.6C133.752 115.311 133.85 115.063 134.046 114.858C134.252 114.653 134.499 114.55 134.788 114.55C135.068 114.55 135.306 114.653 135.502 114.858C135.708 115.063 135.81 115.311 135.81 115.6C135.81 115.889 135.708 116.132 135.502 116.328C135.306 116.524 135.068 116.622 134.788 116.622ZM150.361 124.294L150.725 122.334C151.63 122.334 152.419 122.311 153.091 122.264C153.763 122.208 154.318 122.129 154.757 122.026C155.205 121.914 155.536 121.769 155.751 121.592C155.975 121.415 156.087 121.2 156.087 120.948C156.087 120.612 156.031 120.211 155.919 119.744C155.807 119.268 155.662 118.787 155.485 118.302L157.319 117.77C157.44 118.087 157.557 118.437 157.669 118.82C157.781 119.193 157.87 119.571 157.935 119.954C158.01 120.327 158.047 120.677 158.047 121.004C158.047 121.583 157.921 122.082 157.669 122.502C157.417 122.913 156.997 123.253 156.409 123.524C155.83 123.785 155.046 123.977 154.057 124.098C153.068 124.229 151.836 124.294 150.361 124.294ZM150.347 124.294C149.339 124.294 148.485 124.215 147.785 124.056C147.094 123.907 146.53 123.692 146.091 123.412C145.662 123.123 145.349 122.787 145.153 122.404C144.957 122.021 144.859 121.601 144.859 121.144C144.859 120.845 144.882 120.547 144.929 120.248C144.985 119.94 145.05 119.641 145.125 119.352C145.209 119.063 145.284 118.801 145.349 118.568L147.099 118.974C147.062 119.142 147.02 119.324 146.973 119.52C146.926 119.716 146.889 119.907 146.861 120.094C146.833 120.271 146.819 120.435 146.819 120.584C146.819 120.929 146.94 121.237 147.183 121.508C147.435 121.769 147.846 121.975 148.415 122.124C148.984 122.264 149.75 122.334 150.711 122.334L150.991 123.846L150.347 124.294ZM151.537 116.02C151.304 116.02 151.098 115.931 150.921 115.754C150.753 115.577 150.669 115.367 150.669 115.124C150.669 114.881 150.753 114.676 150.921 114.508C151.098 114.34 151.304 114.256 151.537 114.256C151.78 114.256 151.985 114.34 152.153 114.508C152.321 114.676 152.405 114.881 152.405 115.124C152.405 115.367 152.321 115.577 152.153 115.754C151.985 115.931 151.78 116.02 151.537 116.02ZM150.417 117.868C150.184 117.868 149.978 117.779 149.801 117.602C149.633 117.425 149.549 117.215 149.549 116.972C149.549 116.729 149.633 116.524 149.801 116.356C149.978 116.188 150.184 116.104 150.417 116.104C150.66 116.104 150.865 116.188 151.033 116.356C151.201 116.524 151.285 116.729 151.285 116.972C151.285 117.215 151.201 117.425 151.033 117.602C150.865 117.779 150.66 117.868 150.417 117.868ZM152.587 117.868C152.354 117.868 152.148 117.779 151.971 117.602C151.803 117.425 151.719 117.215 151.719 116.972C151.719 116.729 151.803 116.524 151.971 116.356C152.148 116.188 152.354 116.104 152.587 116.104C152.83 116.104 153.035 116.188 153.203 116.356C153.371 116.524 153.455 116.729 153.455 116.972C153.455 117.215 153.371 117.425 153.203 117.602C153.035 117.779 152.83 117.868 152.587 117.868ZM161.805 122.11C162.225 122.11 162.547 122.073 162.771 121.998C162.995 121.923 163.149 121.825 163.233 121.704C163.317 121.583 163.359 121.452 163.359 121.312C163.359 121.088 163.294 120.827 163.163 120.528C163.042 120.229 162.888 119.917 162.701 119.59C162.514 119.263 162.318 118.951 162.113 118.652C161.917 118.353 161.74 118.092 161.581 117.868L163.247 116.762C163.648 117.303 163.994 117.84 164.283 118.372C164.572 118.895 164.806 119.38 164.983 119.828C165.17 120.276 165.3 120.659 165.375 120.976C165.45 121.275 165.562 121.508 165.711 121.676C165.87 121.835 166.052 121.947 166.257 122.012C166.462 122.077 166.668 122.11 166.873 122.11C167.228 122.11 167.48 122.203 167.629 122.39C167.788 122.567 167.867 122.791 167.867 123.062C167.867 123.351 167.769 123.594 167.573 123.79C167.386 123.977 167.106 124.07 166.733 124.07C166.322 124.07 165.963 124.014 165.655 123.902C165.347 123.79 165.086 123.613 164.871 123.37C164.656 123.127 164.474 122.819 164.325 122.446L165.179 122.628C165.104 122.889 164.932 123.132 164.661 123.356C164.4 123.571 164.05 123.748 163.611 123.888C163.182 124.019 162.673 124.084 162.085 124.084C161.805 124.084 161.492 124.061 161.147 124.014C160.811 123.967 160.475 123.897 160.139 123.804C159.812 123.711 159.514 123.589 159.243 123.44L159.929 121.662C160.274 121.811 160.606 121.923 160.923 121.998C161.25 122.073 161.544 122.11 161.805 122.11ZM166.751 124.07L166.891 122.11C167.395 122.11 167.894 122.082 168.389 122.026C168.884 121.97 169.364 121.886 169.831 121.774C170.298 121.662 170.741 121.517 171.161 121.34C171.59 121.163 171.992 120.948 172.365 120.696C172.085 120.528 171.782 120.383 171.455 120.262C171.128 120.141 170.778 120.052 170.405 119.996C170.041 119.931 169.654 119.898 169.243 119.898C169.094 119.898 168.935 119.903 168.767 119.912C168.608 119.921 168.445 119.94 168.277 119.968C168.109 119.987 167.941 120.015 167.773 120.052L167.493 118.134C167.764 118.059 168.048 118.008 168.347 117.98C168.655 117.943 168.926 117.924 169.159 117.924C169.663 117.924 170.125 117.98 170.545 118.092C170.974 118.204 171.366 118.344 171.721 118.512C172.085 118.68 172.421 118.848 172.729 119.016C173.046 119.184 173.345 119.324 173.625 119.436C173.914 119.548 174.194 119.604 174.465 119.604H174.983L175.207 121.466C174.806 121.485 174.428 121.564 174.073 121.704C173.728 121.835 173.382 122.003 173.037 122.208C172.701 122.404 172.337 122.609 171.945 122.824C171.562 123.039 171.128 123.239 170.643 123.426C170.158 123.613 169.598 123.767 168.963 123.888C168.328 124.009 167.591 124.07 166.751 124.07Z" fill="#B3B3B3"/>
</svg>
